<?xml version="1.0" encoding="utf-8"?><svg viewBox="0 0 24 24" xmlns="http://www.w3.org/2000/svg" xmlns:xlink="http://www.w3.org/1999/xlink"><style>:root>svg{display:none}:root>svg:target{display:block}</style><svg viewBox="0 0 24 24" id="arrow" xmlns="http://www.w3.org/2000/svg"><path d="M14.43 18.82c-.19 0-.38-.07-.53-.22a.754.754 0 010-1.06L19.44 12 13.9 6.46a.754.754 0 010-1.06c.29-.29.77-.29 1.06 0l6.07 6.07c.29.29.29.77 0 1.06l-6.07 6.07c-.15.15-.34.22-.53.22z"/><path d="M20.33 12.75H3.5c-.41 0-.75-.34-.75-.75s.34-.75.75-.75h16.83c.41 0 .75.34.75.75s-.34.75-.75.75z"/></svg><svg viewBox="0 0 20 20" id="linkedin" xmlns="http://www.w3.org/2000/svg"><path d="M5.783 4.167a1.667 1.667 0 11-3.333-.002 1.667 1.667 0 013.333.002zm.05 2.9H2.5V17.5h3.333V7.067zm5.267 0H7.783V17.5h3.284v-5.475c0-3.05 3.975-3.333 3.975 0V17.5h3.291v-6.608c0-5.142-5.883-4.95-7.266-2.425l.033-1.4z"/></svg><svg viewBox="0 0 20 20" id="search" xmlns="http://www.w3.org/2000/svg"><path d="M9.583 18.125c-4.708 0-8.541-3.833-8.541-8.542 0-4.708 3.833-8.541 8.541-8.541 4.709 0 8.542 3.833 8.542 8.541 0 4.709-3.833 8.542-8.542 8.542zm0-15.833c-4.025 0-7.291 3.275-7.291 7.291 0 4.017 3.266 7.292 7.291 7.292s7.292-3.275 7.292-7.292c0-4.016-3.267-7.291-7.292-7.291zM18.333 18.958a.618.618 0 01-.441-.183l-1.667-1.667a.629.629 0 010-.883.629.629 0 01.883 0l1.667 1.667a.629.629 0 010 .883.618.618 0 01-.442.183z"/></svg><svg viewBox="0 0 20 20" id="twitter" xmlns="http://www.w3.org/2000/svg"><path d="M18.468 4.713a6.987 6.987 0 01-2.001.549A3.497 3.497 0 0018 3.333a6.965 6.965 0 01-2.213.846 3.485 3.485 0 00-5.939 3.178 9.895 9.895 0 01-7.183-3.641 3.485 3.485 0 001.078 4.653 3.473 3.473 0 01-1.578-.436v.044a3.487 3.487 0 002.796 3.417c-.514.14-1.052.16-1.575.06a3.487 3.487 0 003.256 2.421 6.993 6.993 0 01-5.16 1.443 9.857 9.857 0 005.342 1.567c6.41 0 9.917-5.31 9.917-9.917 0-.15-.004-.301-.011-.45a7.08 7.08 0 001.74-1.804h-.002z"/></svg><svg viewBox="0 0 20 20" id="user" xmlns="http://www.w3.org/2000/svg"><path d="M10 10.625a4.798 4.798 0 01-4.792-4.792A4.798 4.798 0 0110 1.042a4.798 4.798 0 014.792 4.791A4.798 4.798 0 0110 10.625zm0-8.333a3.55 3.55 0 00-3.542 3.541A3.55 3.55 0 0010 9.375a3.55 3.55 0 003.542-3.542A3.55 3.55 0 0010 2.292zM17.159 18.958a.63.63 0 01-.625-.625c0-2.875-2.934-5.208-6.534-5.208-3.6 0-6.533 2.333-6.533 5.208a.63.63 0 01-.625.625.63.63 0 01-.625-.625c0-3.558 3.491-6.458 7.783-6.458s7.784 2.9 7.784 6.458a.63.63 0 01-.625.625z"/></svg></svg>